# xmcd
#
# Track frame offsets: 
#        150
#        31542
#        67463
#        111991
#        138447
#        172729
#        203874
#        219652
#        239720
#        263961
#        282952
#        298829
#        319939
#        335415
#
# Disc length: 4717 seconds
#
# Revision: 1
# Processed by: cddbd v1.5.2PL0 Copyright (c) Steve Scherf et al.
# Submitted via: ExactAudioCopy v0.99pb5
#
DISCID=e6126b0e
DTITLE=Chet Baker - Cool Jazz [CD 2)
DYEAR=2009
DGENRE=Jazz
TTITLE0=Fair Wheather
TTITLE1=Polka Dots And Moonbeams
TTITLE2=Hotel 49
TTITLE3=Solar
TTITLE4=Blue Thoughts
TTITLE5=When Lights Are Low
TTITLE6=A Foggy Day
TTITLE7=Mythe
TTITLE8=Worrying The Life Out Of Me
TTITLE9=Chet
TTITLE10=Darn That Dream
TTITLE11=Dinah
TTITLE12=V-Line
TTITLE13=Tenderly
EXTD=YEAR: 2009
EXTT0=
EXTT1=
EXTT2=
EXTT3=
EXTT4=
EXTT5=
EXTT6=
EXTT7=
EXTT8=
EXTT9=
EXTT10=
EXTT11=
EXTT12=
EXTT13=
PLAYORDER=
